<svg width="162" height="8" viewBox="0 0 162 8" fill="none" xmlns="http://www.w3.org/2000/svg">
<path d="M0.707031 0.707092L4.70703 4.70709C6.91617 6.91623 10.4979 6.91623 12.707 4.70709C14.9162 2.49795 18.4979 2.49795 20.707 4.70709C22.9162 6.91623 26.4979 6.91623 28.707 4.70709C30.9162 2.49795 34.4979 2.49795 36.707 4.70709C38.9162 6.91623 42.4979 6.91623 44.707 4.70709C46.9162 2.49795 50.4979 2.49795 52.707 4.70709C54.9162 6.91623 58.4979 6.91623 60.707 4.70709C62.9162 2.49795 66.4979 2.49795 68.707 4.70709C70.9162 6.91623 74.4979 6.91623 76.707 4.70709C78.9162 2.49795 82.4979 2.49795 84.707 4.70709C86.9162 6.91623 90.4979 6.91623 92.707 4.70709C94.9162 2.49795 98.4979 2.49795 100.707 4.70709C102.916 6.91623 106.498 6.91623 108.707 4.70709C110.916 2.49795 114.498 2.49795 116.707 4.70709C118.916 6.91623 122.498 6.91623 124.707 4.70709C126.916 2.49795 130.498 2.49795 132.707 4.70709C134.916 6.91623 138.498 6.91623 140.707 4.70709L140.956 4.45806C143.028 2.38646 146.386 2.38646 148.458 4.45806C150.714 6.71426 154.469 6.44812 157.075 4.6073C158.158 3.84225 159.39 3.14616 160.707 2.70709" stroke="#9196FF" stroke-width="2"/>
</svg>
