<svg width="81" height="8" viewBox="0 0 81 8" fill="none" xmlns="http://www.w3.org/2000/svg">
<path d="M0.707031 0.707092L4.70703 4.70709C6.91617 6.91623 10.4979 6.91623 12.707 4.70709C14.9162 2.49795 18.4979 2.49795 20.707 4.70709C22.9162 6.91623 26.4979 6.91623 28.707 4.70709C30.9162 2.49795 34.4979 2.49795 36.707 4.70709C38.9162 6.91623 42.4979 6.91623 44.707 4.70709C46.9162 2.49795 50.4979 2.49795 52.707 4.70709C54.9162 6.91623 58.4979 6.91623 60.707 4.70709L60.9065 4.50759C63.0055 2.40863 66.4086 2.40863 68.5075 4.50759C70.756 6.75605 74.4303 6.50458 76.9579 4.57529C78.1763 3.64529 79.501 2.87938 80.707 2.70709" stroke="#9196FF" stroke-width="2"/>
</svg>
